<?xml version="1.0" encoding="UTF-8"?>
<svg version="1.1" xmlns="http://www.w3.org/2000/svg" width="512" height="512">
<path d="M0 0 C13.87740342 12.04386048 24.22470755 26.68209803 30.765625 43.8671875 C31.04744629 44.59236572 31.32926758 45.31754395 31.61962891 46.06469727 C37.81638056 63.15478338 37.38663264 80.17960428 37.203125 98.1171875 C37.18804737 100.69400257 37.17436443 103.27082621 37.16210938 105.84765625 C37.12935649 112.10435616 37.07940245 118.36073088 37.015625 124.6171875 C37.76618164 124.60948334 38.51673828 124.60177917 39.29003906 124.59384155 C40.27713867 124.58784943 41.26423828 124.5818573 42.28125 124.57568359 C43.25868164 124.56797943 44.23611328 124.56027527 45.24316406 124.55233765 C59.91756721 124.89558248 73.76615767 133.74156093 84.015625 143.6171875 C97.57969465 159.24637502 101.48416282 176.11364174 101.41967773 196.27685547 C101.42539409 197.9095913 101.43236319 199.54232314 101.44047546 201.17504883 C101.45828298 205.57189873 101.45726201 209.96854772 101.45153308 214.36542273 C101.44842295 218.0529026 101.45455385 221.74034488 101.46057183 225.42781937 C101.4745749 234.13566847 101.47309122 242.84341937 101.46166992 251.55126953 C101.45019452 260.49737386 101.46426432 269.44317819 101.4910664 278.38924301 C101.51330692 286.10519595 101.519842 293.82105529 101.51398998 301.53703797 C101.51063891 306.12998849 101.51291111 310.72274684 101.53024101 315.31567001 C101.54584193 319.63824689 101.54161093 323.96038342 101.52293587 328.28294373 C101.51928594 329.85695951 101.52225159 331.43100891 101.53282166 333.00499344 C101.6545203 352.64712149 96.44442574 369.81526066 82.55078125 384.3046875 C64.43899564 400.82576158 44.71613744 402.92247651 21.24291992 402.8918457 C19.03743823 402.89619792 16.83195806 402.90138276 14.6264801 402.90733337 C8.65942248 402.92068024 2.69242836 402.92130681 -3.27464128 402.91877007 C-8.2669032 402.91769736 -13.25915243 402.92259144 -18.25141162 402.9273755 C-30.70792441 402.93908848 -43.16440903 402.93825416 -55.62092283 402.93181869 C-66.40990085 402.92665245 -77.1987885 402.93790116 -87.98774866 402.95691691 C-99.09619267 402.97634391 -110.20460002 402.9842521 -121.31306189 402.98079365 C-127.53743789 402.97898579 -133.76173112 402.98156725 -139.98609352 402.99550819 C-145.84257938 403.00813531 -151.69888515 403.00609631 -157.55536842 402.99309731 C-159.69581159 402.99074254 -161.83626762 402.99342641 -163.97669601 403.00172043 C-187.21719008 403.08523148 -205.67022167 399.50395529 -223.45703125 383.375 C-228.08620207 378.65848634 -231.36458344 373.58258615 -234.359375 367.7421875 C-234.68131836 367.11884521 -235.00326172 366.49550293 -235.33496094 365.85327148 C-240.76223113 354.58666058 -241.42395642 343.19540065 -241.37255859 330.93164062 C-241.37663248 329.28433384 -241.38197891 327.63702979 -241.38848877 325.98973083 C-241.40207113 321.54962546 -241.39690157 317.1097311 -241.38735151 312.66962242 C-241.37970752 308.00276535 -241.3868136 303.33592524 -241.39151001 298.66906738 C-241.39695384 290.83484688 -241.3898121 283.00071147 -241.37548828 275.16650391 C-241.35916443 266.13463091 -241.36445391 257.10296116 -241.3809675 248.07109308 C-241.39462161 240.28896942 -241.3964829 232.50690662 -241.38865149 224.72477484 C-241.38399649 220.08890805 -241.38328986 215.45313651 -241.39326096 210.817276 C-241.40198573 206.45702253 -241.39580909 202.09702875 -241.37857819 197.73680305 C-241.37464257 196.145406 -241.37569662 194.55398674 -241.38236618 192.9625988 C-241.45776067 173.13075221 -236.24521052 156.01109458 -221.984375 141.6171875 C-210.88114769 131.8809786 -197.33874791 124.50200587 -182.29101562 124.5871582 C-181.29799438 124.59149368 -180.30497314 124.59582916 -179.28186035 124.60029602 C-178.52369019 124.60587021 -177.76552002 124.6114444 -176.984375 124.6171875 C-176.99103683 123.9636731 -176.99769867 123.31015869 -177.00456238 122.63684082 C-177.07158562 115.75713078 -177.11644977 108.87751535 -177.14916992 101.99755859 C-177.16413925 99.43925196 -177.18452193 96.88097046 -177.21069336 94.32275391 C-177.38497381 76.83319846 -177.21250492 60.58700971 -170.859375 44.0546875 C-170.5593457 43.26368652 -170.25931641 42.47268555 -169.95019531 41.65771484 C-159.19753982 14.41436599 -137.33908242 -6.27350359 -110.703125 -17.8828125 C-73.63558982 -33.2503948 -30.43891847 -25.46212862 0 0 Z M-120.234375 42.2421875 C-138.4494126 66.22906829 -133.984375 95.60768713 -133.984375 124.6171875 C-91.744375 124.6171875 -49.504375 124.6171875 -5.984375 124.6171875 C-3.97806962 75.39352256 -3.97806962 75.39352256 -25.984375 35.6171875 C-40.69456865 22.65295135 -57.33917644 17.25795601 -76.74902344 18.40576172 C-94.02072937 20.03936781 -109.03726777 29.25440608 -120.234375 42.2421875 Z M-192.359375 174.7421875 C-193.00648438 175.44601563 -193.65359375 176.14984375 -194.3203125 176.875 C-199.08215692 184.72198306 -198.27105486 194.31833056 -198.24316406 203.17382812 C-198.24587866 204.62851638 -198.24944222 206.08320326 -198.25378418 207.53788757 C-198.26285471 211.46555428 -198.25938608 215.3931152 -198.25302601 219.32078362 C-198.24793826 223.4445307 -198.25266514 227.56826914 -198.25579834 231.6920166 C-198.25942992 238.61516942 -198.25466012 245.53827947 -198.24511719 252.46142578 C-198.23423419 260.44864088 -198.23776034 268.43575385 -198.24877 276.42296648 C-198.25786593 283.29882442 -198.25911689 290.17465173 -198.25389266 297.05051374 C-198.25078562 301.14919679 -198.25032864 305.24783193 -198.25696564 309.34651184 C-198.26277211 313.20107074 -198.25868223 317.05549884 -198.24717712 320.91004372 C-198.24454811 322.31886898 -198.24526531 323.72770538 -198.24970245 325.13652611 C-198.58679999 338.73637042 -198.58679999 338.73637042 -193.359375 350.9296875 C-192.91335937 351.54457031 -192.46734375 352.15945313 -192.0078125 352.79296875 C-186.1971613 358.03152881 -180.18524495 359.20572094 -172.57226562 359.12512207 C-171.65635902 359.13136203 -170.74045242 359.137602 -169.79679108 359.14403105 C-166.74446959 359.15991628 -163.69295164 359.14737417 -160.640625 359.13476562 C-158.44555192 359.14018872 -156.25048248 359.14731242 -154.05541992 359.15600586 C-148.10504203 359.1742197 -142.15494199 359.16717951 -136.20455933 359.15448952 C-129.97295389 359.14435191 -123.74137201 359.15375732 -117.50976562 359.16003418 C-106.37555438 359.16777407 -95.24145228 359.15535512 -84.10726261 359.13499683 C-74.02196674 359.11712697 -63.93685505 359.12023144 -53.8515625 359.13867188 C-42.1260457 359.16010149 -30.40063632 359.1680335 -18.67510223 359.15622282 C-12.47321654 359.14999151 -6.27145759 359.14914243 -0.06958008 359.16236877 C5.76147063 359.17393597 11.59217401 359.16588519 17.42318726 359.14279175 C19.56130395 359.13750937 21.69944995 359.13901033 23.83755493 359.14784241 C26.75993448 359.15879984 29.68120634 359.14503142 32.60351562 359.12512207 C33.44632835 359.13404496 34.28914108 359.14296784 35.15749359 359.15216112 C41.77428529 359.06493525 47.0740225 357.26917276 52.0390625 352.79296875 C52.48507812 352.17808594 52.93109375 351.56320312 53.390625 350.9296875 C53.85210937 350.32769531 54.31359375 349.72570312 54.7890625 349.10546875 C58.80778374 340.95284 58.30231478 331.91919706 58.27441406 323.06054688 C58.27712866 321.60585862 58.28069222 320.15117174 58.28503418 318.69648743 C58.29410471 314.76882072 58.29063608 310.8412598 58.28427601 306.91359138 C58.27918826 302.7898443 58.28391514 298.66610586 58.28704834 294.5423584 C58.29067992 287.61920558 58.28591012 280.69609553 58.27636719 273.77294922 C58.26548419 265.78573412 58.26901034 257.79862115 58.28002 249.81140852 C58.28911593 242.93555058 58.29036689 236.05972327 58.28514266 229.18386126 C58.28203562 225.08517821 58.28157864 220.98654307 58.28821564 216.88786316 C58.29402211 213.03330426 58.28993223 209.17887616 58.27842712 205.32433128 C58.27579811 203.91550602 58.27651531 202.50666962 58.28095245 201.09784889 C58.65469277 186.9226205 58.65469277 186.9226205 52.390625 174.7421875 C51.75898438 174.02289063 51.12734375 173.30359375 50.4765625 172.5625 C44.46395601 167.80967772 38.12793383 167.17659502 30.75537109 167.23623657 C29.40601251 167.22921661 29.40601251 167.22921661 28.02939415 167.22205484 C25.03246438 167.21014404 22.0359952 167.21954678 19.0390625 167.22900391 C16.8833998 167.22493647 14.72773919 167.21959363 12.57208252 167.21307373 C6.72917809 167.19941487 0.88643285 167.20469296 -4.9564743 167.21421099 C-11.07596765 167.22181493 -17.19544752 167.21475993 -23.31494141 167.21005249 C-33.59084516 167.2045971 -43.8666842 167.21178093 -54.14257812 167.22607422 C-66.01688893 167.24240027 -77.89104519 167.23711161 -89.76535225 167.220595 C-99.96684147 167.20697403 -110.16828421 167.20506349 -120.36977959 167.21291101 C-126.45986336 167.21758414 -132.54987453 167.21822221 -138.63995361 167.20830154 C-144.36589022 167.19962533 -150.09162788 167.20566598 -155.81754303 167.22298431 C-157.91696086 167.22694562 -160.01639547 167.22582122 -162.11580658 167.21919632 C-164.98546956 167.21097681 -167.85449832 167.22130753 -170.72412109 167.23623657 C-171.55137003 167.22954441 -172.37861897 167.22285224 -173.23093605 167.21595728 C-180.71357192 167.29126324 -187.23133151 168.90249716 -192.359375 174.7421875 Z " fill="#000000" transform="translate(325.984375,67.3828125)"/>
</svg>
